<?xml version="1.0" encoding="utf-8"?>
<!-- Generator: Adobe Illustrator 21.0.2, SVG Export Plug-In . SVG Version: 6.00 Build 0)  -->
<svg version="1.1" id="Слой_1" xmlns="http://www.w3.org/2000/svg" xmlns:xlink="http://www.w3.org/1999/xlink" x="0px" y="0px"
	 viewBox="0 0 127 31.2" style="enable-background:new 0 0 127 31.2;" xml:space="preserve">
<style type="text/css">
	.st0{fill:#CFD0D2;}
</style>
<g>
	<g>
		<path class="st0" d="M4.1,0.3c0.2,0,0.5,0,0.8,0s0.6,0.1,1,0.1C6.3,0.5,6.6,0.6,7,0.7S7.7,1,8,1.2C8.5,1.6,8.8,2,9.1,2.4
			s0.4,0.8,0.6,1.3C9.8,4.1,9.9,4.5,9.9,5c0,0.4,0,0.8,0,1.1c0,0.7,0,1.3-0.1,1.8C9.6,8.3,9.4,8.7,9,9.2C8.8,9.4,8.6,9.6,8.4,9.7
			C8.2,9.9,8,10,7.9,10.1c0.4,0.2,0.7,0.4,0.9,0.6C9,11,9.2,11.2,9.3,11.4c0.3,0.5,0.5,0.9,0.5,1.3c0,0.4,0.1,0.8,0.1,1.3v1.5
			c0,0.2,0,0.5,0,0.8c0,0.4-0.1,0.7-0.2,1.1c-0.1,0.4-0.3,0.8-0.5,1.2c-0.2,0.4-0.6,0.8-1,1.1c-0.3,0.3-0.8,0.5-1.3,0.7
			c-0.6,0.2-1.3,0.3-2.1,0.3H0.2V0.3H4.1z M3.1,8.8h1.4c0.5,0,0.9-0.1,1.2-0.2C6,8.4,6.2,8.2,6.4,8c0.2-0.2,0.3-0.5,0.4-0.8
			s0.1-0.6,0.1-1V5c0-0.3-0.1-0.5-0.2-0.8c0-0.2-0.1-0.4-0.3-0.6C6.2,3.4,6,3.3,5.7,3.1C5.4,3,5,2.9,4.5,2.9H3.1V8.8z M3.1,18.1h1.3
			c0.2,0,0.5,0,0.9-0.1s0.8-0.3,1.1-0.8c0.1-0.2,0.2-0.4,0.3-0.6c0.1-0.2,0.1-0.4,0.2-0.6c0-0.2,0-0.4,0.1-0.5c0-0.2,0-0.3,0-0.4v-1
			c0-0.5,0-0.9-0.1-1.3c-0.1-0.4-0.3-0.7-0.6-1c-0.4-0.4-0.9-0.5-1.5-0.5H3.1V18.1z"/>
		<path class="st0" d="M19,0.3V18h6.2v2.8h-9.1V0.3H19z"/>
		<path class="st0" d="M37.2,20.8l-1-4.4h-3.7l-1,4.4h-2.9l4.5-20.5h2.6l4.5,20.5H37.2z M34.3,6l-1.5,7.8h3.1L34.3,6z"/>
		<path class="st0" d="M51.3,4.9c0-0.2,0-0.4-0.1-0.7C51.1,4,51,3.8,50.9,3.6c-0.1-0.1-0.2-0.2-0.5-0.4c-0.2-0.2-0.6-0.3-1.1-0.3
			c-0.4,0-0.7,0.1-0.9,0.2c-0.2,0.1-0.4,0.3-0.6,0.5c-0.2,0.3-0.4,0.6-0.4,1s-0.1,0.7-0.1,1.1v10.1c0,0.3,0,0.6,0,1
			c0,0.3,0.1,0.6,0.3,0.9c0.1,0.2,0.3,0.3,0.5,0.5s0.6,0.2,1,0.2c0.3,0,0.6-0.1,0.9-0.2c0.3-0.1,0.5-0.3,0.7-0.5
			c0.1-0.1,0.2-0.3,0.3-0.5c0.1-0.3,0.1-0.6,0.1-1.1v-0.7H54v0.8c0,1-0.1,1.8-0.4,2.4c-0.3,0.6-0.5,1-0.8,1.3s-0.8,0.6-1.4,0.9
			C51,20.9,50.1,21,49.1,21s-1.7-0.2-2.3-0.5s-1-0.7-1.4-1.1c-0.5-0.6-0.8-1.3-0.9-1.9c-0.1-0.7-0.1-1.2-0.1-1.8V5.2
			c0-0.7,0.1-1.4,0.2-2.1c0.2-0.7,0.6-1.4,1.2-1.9c0.4-0.4,1-0.7,1.6-0.9C48.1,0.1,48.7,0,49.2,0c0.6,0,1.3,0.1,1.9,0.3
			c0.6,0.2,1.2,0.6,1.6,1c0.4,0.4,0.7,0.8,0.9,1.4c0.3,0.6,0.4,1.2,0.4,2v1.4h-2.8L51.3,4.9L51.3,4.9z"/>
		<path class="st0" d="M62.9,0.3v9.9l4.6-9.9h3.1l-4.2,8.4l4.9,12.1h-3.2l-3.5-9.1l-1.8,3.2v6h-2.9V0.3H62.9z"/>
		<path class="st0" d="M80.5,0.3c0.2,0,0.5,0,0.8,0s0.6,0.1,1,0.1c0.4,0.1,0.7,0.2,1.1,0.3s0.7,0.3,1,0.5c0.5,0.3,0.8,0.7,1.1,1.1
			c0.3,0.4,0.4,0.8,0.6,1.3c0.1,0.4,0.2,0.8,0.2,1.3c0,0.4,0,0.8,0,1.1c0,0.7,0,1.3-0.1,1.8s-0.3,1-0.7,1.4
			c-0.2,0.2-0.4,0.4-0.6,0.6c-0.2,0.1-0.4,0.3-0.5,0.4c0.4,0.2,0.7,0.4,0.9,0.6c0.2,0.2,0.4,0.5,0.5,0.7c0.3,0.5,0.5,0.9,0.5,1.3
			c0,0.4,0.1,0.8,0.1,1.3v1.5c0,0.2,0,0.5,0,0.8c0,0.4-0.1,0.7-0.2,1.1s-0.3,0.8-0.5,1.2c-0.2,0.4-0.6,0.8-1,1.1
			c-0.3,0.3-0.8,0.5-1.3,0.7c-0.6,0.2-1.3,0.3-2.1,0.3h-4.4V0.3H80.5z M79.4,8.8h1.4c0.5,0,0.9-0.1,1.2-0.2c0.3-0.2,0.5-0.3,0.7-0.5
			s0.3-0.5,0.4-0.8s0.1-0.6,0.1-1V5c0-0.3-0.1-0.5-0.2-0.8c0-0.2-0.1-0.4-0.3-0.6c-0.2-0.2-0.4-0.3-0.7-0.5
			c-0.3-0.1-0.7-0.2-1.2-0.2h-1.4V8.8z M79.4,18.1h1.3c0.2,0,0.5,0,0.9-0.1s0.8-0.3,1.1-0.8c0.1-0.2,0.2-0.4,0.3-0.6
			c0.1-0.2,0.1-0.4,0.2-0.6c0-0.2,0-0.4,0.1-0.5c0-0.2,0-0.3,0-0.4v-1c0-0.5,0-0.9-0.1-1.3c-0.1-0.4-0.3-0.7-0.6-1
			c-0.4-0.4-0.9-0.5-1.5-0.5h-1.5v6.8H79.4z"/>
		<path class="st0" d="M95.3,0.3v20.5h-2.9V0.3H95.3z"/>
		<path class="st0" d="M105.3,0.3c0.4,0,0.8,0,1.2,0c0.4,0,0.9,0.1,1.3,0.2c0.5,0.1,0.9,0.3,1.3,0.5s0.8,0.5,1.2,1
			c0.3,0.4,0.6,0.9,0.8,1.5c0.2,0.6,0.3,1.3,0.3,2V7c0,0.7-0.1,1.3-0.3,1.9c-0.2,0.6-0.5,1-0.8,1.4c-0.2,0.3-0.5,0.5-0.7,0.6
			c-0.3,0.2-0.5,0.3-0.8,0.4l3.2,9.4h-3l-2.8-8.8h-1.7v8.8h-2.9V0.3H105.3z M104.4,9.3h1.7c0.3,0,0.6,0,0.9-0.1s0.6-0.3,0.9-0.5
			c0.3-0.3,0.5-0.6,0.5-0.8c0.1-0.3,0.1-0.6,0.1-1V5.3c0-0.4-0.1-0.7-0.2-1.1c-0.1-0.3-0.3-0.6-0.5-0.8c-0.3-0.3-0.6-0.5-0.9-0.5
			s-0.7,0-1,0h-1.5V9.3z"/>
		<path class="st0" d="M121.2,0.3c0.3,0,0.6,0,1,0s0.7,0.1,1.1,0.1c0.4,0.1,0.7,0.2,1.1,0.4s0.7,0.4,1,0.7c0.4,0.4,0.7,0.7,0.9,1.2
			c0.2,0.4,0.4,0.8,0.5,1.2s0.2,0.8,0.2,1.2s0,0.6,0,0.9v9c0,0.7-0.1,1.4-0.2,2.1s-0.5,1.4-1.1,2c-0.3,0.4-0.7,0.6-1,0.8
			c-0.4,0.2-0.7,0.4-1.1,0.5s-0.7,0.2-1.1,0.2c-0.3,0-0.7,0.1-0.9,0.1h-4.4V0.3H121.2z M120.1,17.9h1.3c0.3,0,0.6,0,1-0.1
			s0.7-0.3,1-0.6c0.3-0.3,0.5-0.7,0.6-1.2c0.1-0.5,0.1-0.9,0.1-1.2V5.7c0-0.3,0-0.6-0.1-0.9s-0.2-0.7-0.5-1s-0.6-0.5-0.9-0.6
			s-0.7-0.1-1-0.1h-1.5V17.9z"/>
	</g>
	<g>
		<path class="st0" d="M40.7,25.4c0-0.1,0-0.2,0-0.2c0-0.1-0.1-0.2-0.1-0.2s-0.1-0.1-0.2-0.2c-0.1-0.1-0.2-0.1-0.4-0.1
			c-0.1,0-0.3,0-0.3,0.1c-0.1,0-0.2,0.1-0.2,0.2c-0.1,0.1-0.1,0.2-0.2,0.4c0,0.1,0,0.3,0,0.4v3.7c0,0.1,0,0.2,0,0.3
			c0,0.1,0.1,0.2,0.1,0.3c0,0.1,0.1,0.1,0.2,0.2c0.1,0.1,0.2,0.1,0.4,0.1c0.1,0,0.2,0,0.3-0.1c0.1,0,0.2-0.1,0.3-0.2
			c0,0,0.1-0.1,0.1-0.2s0.1-0.2,0.1-0.4v-0.3h1.1v0.3c0,0.4,0,0.7-0.1,0.9c-0.1,0.2-0.2,0.4-0.3,0.5s-0.3,0.2-0.5,0.3
			c-0.2,0.1-0.5,0.2-0.9,0.2s-0.6-0.1-0.8-0.2s-0.4-0.2-0.5-0.4c-0.2-0.2-0.3-0.5-0.3-0.7s0-0.5,0-0.6v-3.9c0-0.2,0-0.5,0.1-0.8
			s0.2-0.5,0.5-0.7c0.2-0.1,0.4-0.3,0.6-0.3c0.2-0.1,0.4-0.1,0.6-0.1c0.2,0,0.5,0,0.7,0.1s0.4,0.2,0.6,0.4c0.1,0.1,0.2,0.3,0.3,0.5
			s0.1,0.4,0.1,0.7v0.5h-1v-0.5H40.7z"/>
		<path class="st0" d="M46,23.7v7.4h-1v-7.4H46z"/>
		<path class="st0" d="M52.3,30.5c-0.1,0.1-0.2,0.2-0.3,0.3c0,0.1-0.1,0.2-0.2,0.2c-0.2,0.1-0.3,0.1-0.5,0.2c-0.2,0-0.3,0-0.4,0
			c-0.2,0-0.4,0-0.6-0.1c-0.2-0.1-0.4-0.2-0.6-0.4c-0.2-0.2-0.3-0.4-0.3-0.7c0-0.2-0.1-0.4-0.1-0.6v-3.8c0-0.2,0-0.5,0.1-0.7
			c0-0.2,0.1-0.5,0.3-0.7c0.1-0.1,0.2-0.3,0.4-0.4c0.1-0.1,0.3-0.2,0.4-0.2c0.1,0,0.3-0.1,0.4-0.1c0.1,0,0.2,0,0.3,0
			c0.3,0,0.5,0,0.8,0.1c0.2,0.1,0.4,0.2,0.6,0.4c0.1,0.1,0.3,0.3,0.4,0.6c0.1,0.2,0.2,0.5,0.2,0.9v0.3H52v-0.4c0-0.1,0-0.2,0-0.3
			c0-0.1-0.1-0.2-0.2-0.3c-0.1-0.1-0.1-0.1-0.2-0.1c-0.1,0-0.2-0.1-0.4-0.1c-0.1,0-0.3,0-0.4,0.1c-0.1,0-0.2,0.1-0.2,0.2
			c-0.1,0.1-0.2,0.2-0.2,0.4c0,0.1,0,0.3,0,0.4v3.5c0,0.1,0,0.2,0,0.4c0,0.1,0.1,0.3,0.2,0.4c0.1,0.1,0.1,0.1,0.2,0.2
			c0.1,0,0.2,0.1,0.3,0.1s0.2,0,0.3-0.1s0.2-0.1,0.3-0.2s0.2-0.3,0.2-0.4c0-0.2,0-0.3,0-0.4v-1H51v-1h2v4.1h-0.5L52.3,30.5z"/>
		<path class="st0" d="M59.1,31.1l-0.4-1.6h-1.4L57,31.1h-1.1l1.6-7.4h0.9l1.6,7.4H59.1z M58,25.8l-0.6,2.8h1.1L58,25.8z"/>
		<path class="st0" d="M64.6,23.7c0.1,0,0.3,0,0.4,0c0.2,0,0.3,0,0.5,0.1c0.2,0,0.3,0.1,0.5,0.2s0.3,0.2,0.4,0.4
			c0.1,0.1,0.2,0.3,0.3,0.6c0.1,0.2,0.1,0.5,0.1,0.7v0.6c0,0.2,0,0.5-0.1,0.7s-0.2,0.4-0.3,0.5c-0.1,0.1-0.2,0.2-0.3,0.2
			c-0.1,0.1-0.2,0.1-0.3,0.1l1.2,3.4h-1.1l-1-3.2h-0.6v3.2h-1.1v-7.4h1.4V23.7z M64.2,26.9h0.6c0.1,0,0.2,0,0.3,0
			c0.1,0,0.2-0.1,0.3-0.2c0.1-0.1,0.2-0.2,0.2-0.3c0-0.1,0-0.2,0-0.4v-0.5c0-0.1,0-0.3-0.1-0.4c0-0.1-0.1-0.2-0.2-0.3
			c-0.1-0.1-0.2-0.2-0.3-0.2c-0.1,0-0.2,0-0.4,0H64v2.3H64.2z"/>
		<path class="st0" d="M77.1,25.4c0-0.1,0-0.2,0-0.2c0-0.1-0.1-0.2-0.1-0.2s-0.1-0.1-0.2-0.2s-0.2-0.1-0.4-0.1c-0.1,0-0.3,0-0.3,0.1
			c-0.1,0-0.2,0.1-0.2,0.2c-0.1,0.1-0.1,0.2-0.2,0.4c0,0.1,0,0.3,0,0.4v3.7c0,0.1,0,0.2,0,0.3c0,0.1,0.1,0.2,0.1,0.3
			c0,0.1,0.1,0.1,0.2,0.2s0.2,0.1,0.4,0.1c0.1,0,0.2,0,0.3-0.1c0.1,0,0.2-0.1,0.3-0.2c0,0,0.1-0.1,0.1-0.2s0.1-0.2,0.1-0.4v-0.3h1.1
			v0.3c0,0.4,0,0.7-0.1,0.9c-0.1,0.2-0.2,0.4-0.3,0.5c-0.1,0.1-0.3,0.2-0.5,0.3c-0.2,0.1-0.5,0.2-0.9,0.2s-0.6-0.1-0.8-0.2
			c-0.2-0.1-0.4-0.2-0.5-0.4c-0.2-0.2-0.3-0.5-0.3-0.7s0-0.5,0-0.6v-3.9c0-0.2,0-0.5,0.1-0.8s0.2-0.5,0.5-0.7
			c0.2-0.1,0.4-0.3,0.6-0.3c0.2-0.1,0.4-0.1,0.6-0.1s0.5,0,0.7,0.1s0.4,0.2,0.6,0.4c0.1,0.1,0.2,0.3,0.3,0.5
			c0.1,0.2,0.1,0.4,0.1,0.7v0.5h-1v-0.5H77.1z"/>
		<path class="st0" d="M81.3,25.6c0-0.3,0-0.6,0.1-0.8c0.1-0.3,0.2-0.5,0.5-0.8c0.2-0.1,0.4-0.3,0.6-0.4s0.5-0.1,0.7-0.1
			c0.3,0,0.5,0,0.7,0.1s0.4,0.2,0.6,0.4c0.3,0.2,0.4,0.5,0.5,0.8s0.1,0.5,0.1,0.8v3.5c0,0.3,0,0.6-0.1,0.8c-0.1,0.3-0.2,0.5-0.5,0.8
			c-0.2,0.1-0.4,0.3-0.6,0.4s-0.5,0.1-0.7,0.1c-0.3,0-0.5,0-0.7-0.1s-0.4-0.2-0.6-0.4c-0.3-0.2-0.4-0.5-0.5-0.8s-0.1-0.5-0.1-0.8
			V25.6z M84,25.5c0-0.1,0-0.2,0-0.3c0-0.1-0.1-0.2-0.2-0.3c-0.1-0.1-0.1-0.1-0.2-0.1s-0.2-0.1-0.3-0.1c-0.1,0-0.2,0-0.3,0.1
			c-0.1,0-0.2,0.1-0.2,0.1c-0.1,0.1-0.2,0.2-0.2,0.3c0,0.1,0,0.2,0,0.3v3.8c0,0.1,0,0.2,0,0.3c0,0.1,0.1,0.2,0.2,0.3
			C82.9,30,82.9,30,83,30s0.2,0.1,0.3,0.1c0.1,0,0.2,0,0.3-0.1c0.1,0,0.2-0.1,0.2-0.1c0.1-0.1,0.2-0.2,0.2-0.3c0-0.1,0-0.2,0-0.3
			V25.5z"/>
		<path class="st0" d="M89.5,29.9v1.2h-1.2v-1.2H89.5z"/>
	</g>
	<g>
		<rect x="99.1" y="27.2" class="st0" width="27.7" height="1.5"/>
	</g>
	<g>
		<rect y="27.2" class="st0" width="28.1" height="1.5"/>
	</g>
</g>
</svg>
